<?xml version="1.0" encoding="UTF-8"?>
<svg version="1.1" xmlns="http://www.w3.org/2000/svg" width="358" height="357">
<path d="M0 0 C36.21920725 31.35347804 58.21712667 73.91625779 62.75 121.75 C62.8608624 123.83204989 62.94224508 125.91580073 63 128 C63.02046387 128.65323242 63.04092773 129.30646484 63.06201172 129.97949219 C64.41291245 178.85753692 47.21257435 224.72444964 13.62890625 260.23828125 C12.76136719 261.14964844 11.89382813 262.06101562 11 263 C10.30777344 263.75667969 9.61554688 264.51335937 8.90234375 265.29296875 C-18.63623264 294.42337036 -61.9705339 313.50968616 -101.89550781 315.16113281 C-103.24797892 315.1806197 -104.60054161 315.19440567 -105.953125 315.203125 C-106.68685837 315.21018463 -107.42059174 315.21724426 -108.17655945 315.22451782 C-150.59546827 315.53982093 -191.09100983 305.95223174 -225 279 C-225.53496094 278.57783203 -226.06992188 278.15566406 -226.62109375 277.72070312 C-265.350634 246.83923518 -288.11188268 203.79011625 -294.40234375 154.87109375 C-298.61321356 113.39691033 -288.43518467 67.52819797 -263 34 C-262.24460937 32.96488281 -261.48921875 31.92976563 -260.7109375 30.86328125 C-232.34328385 -7.50977447 -190.98359539 -32.71057503 -143.89453125 -40.45703125 C-142.60933594 -40.63621094 -141.32414063 -40.81539062 -140 -41 C-139.34467285 -41.0942627 -138.6893457 -41.18852539 -138.01416016 -41.28564453 C-88.78549801 -47.64837797 -37.65253461 -32.13951307 0 0 Z M-216.75 64.3125 C-220.03380659 68.23482454 -221.81550612 71.30880612 -222.375 76.4375 C-221.65016141 83.32346661 -219.15251042 87.36441421 -214.01171875 91.73828125 C-209.04019644 94.85634281 -204.39388744 95.23384693 -198.625 95.125 C-196.75714844 95.09792969 -196.75714844 95.09792969 -194.8515625 95.0703125 C-193.91054687 95.04710937 -192.96953125 95.02390625 -192 95 C-191.89582764 96.07580322 -191.79165527 97.15160645 -191.68432617 98.26000977 C-190.97299288 103.91049963 -189.50391052 109.34181318 -188.05078125 114.83984375 C-187.60813179 116.52213829 -187.60813179 116.52213829 -187.15653992 118.23841858 C-186.53162856 120.60172586 -185.90362273 122.96421682 -185.27270508 125.32592773 C-184.31758156 128.91838698 -183.38619112 132.51648881 -182.45507812 136.11523438 C-181.84260605 138.41965943 -181.22871985 140.72370919 -180.61328125 143.02734375 C-180.34115311 144.09323227 -180.06902496 145.15912079 -179.78865051 146.25730896 C-177.70009414 153.91793437 -174.85699207 161.06133938 -168.375 166 C-164.87481451 167.47376231 -161.77206759 168.12300006 -157.97970581 168.15390015 C-157.18931412 168.16250061 -156.39892242 168.17110107 -155.58457947 168.17996216 C-154.72635086 168.18422211 -153.86812225 168.18848206 -152.98388672 168.19287109 C-152.07277634 168.20104858 -151.16166595 168.20922607 -150.22294617 168.21765137 C-147.20853321 168.24245614 -144.19416726 168.25901079 -141.1796875 168.2734375 C-139.63177206 168.28142302 -139.63177206 168.28142302 -138.0525856 168.28956985 C-132.58812453 168.31628286 -127.12368613 168.33566181 -121.65917969 168.35009766 C-117.14692861 168.36342371 -112.63513115 168.39125488 -108.12304688 168.43212891 C-102.66540212 168.48156353 -97.20816806 168.50623224 -91.75030899 168.51332474 C-89.67637778 168.52001876 -87.60245507 168.53519231 -85.52865219 168.55921555 C-70.37122669 169.18689627 -70.37122669 169.18689627 -57 163 C-47.18121706 153.19680552 -43.18352438 134.27064834 -38.4296875 121.59375 C-37.55502203 119.2682921 -36.67441758 116.94505992 -35.78808594 114.62402344 C-34.49430449 111.23582021 -33.2179251 107.84151462 -31.9453125 104.4453125 C-31.35014328 102.89978195 -31.35014328 102.89978195 -30.74295044 101.32302856 C-28.37269053 94.92010687 -26.71798837 89.38319061 -28.69921875 82.609375 C-31.49838668 77.34295628 -34.26014716 74.30765704 -39.75 71.6875 C-44.94579975 70.58838851 -49.38992254 70.71107286 -54.21484375 73.09375 C-62.33173589 78.53524194 -64.63715727 88.43717411 -68.109375 97.21484375 C-68.48104797 98.15179581 -68.85272095 99.08874786 -69.23565674 100.05409241 C-70.01306969 102.01589628 -70.78948595 103.97809538 -71.56494141 105.94067383 C-72.75685809 108.95484304 -73.95446928 111.96670996 -75.15234375 114.97851562 C-75.9092005 116.89048794 -76.66572309 118.80259257 -77.421875 120.71484375 C-77.78118103 121.6168602 -78.14048706 122.51887665 -78.51068115 123.44822693 C-78.83812317 124.27991898 -79.16556519 125.11161102 -79.50292969 125.96850586 C-79.93783722 127.06696083 -79.93783722 127.06696083 -80.38153076 128.18760681 C-81.10765277 129.9963023 -81.10765277 129.9963023 -81 132 C-102.45 132 -123.9 132 -146 132 C-147.32 126.39 -148.64 120.78 -150 115 C-151.5076682 108.90289945 -153.07253523 102.82335971 -154.671875 96.74975586 C-155.14346761 94.94738786 -155.60856563 93.14330891 -156.06738281 91.33764648 C-159.76249647 74.52234135 -159.76249647 74.52234135 -170.125 61.4375 C-176.44349369 58.27825316 -182.77978888 58.77954005 -189.73461914 58.75976562 C-191.79549842 58.7500799 -193.85537087 58.71903922 -195.91601562 58.6875 C-204.38326461 58.6542462 -210.11390862 58.73215043 -216.75 64.3125 Z M-169.4375 191.77734375 C-173.38979064 197.39947719 -173.78828774 203.30966045 -173 210 C-171.14812713 217.1965186 -167.10430968 221.89710333 -161 226 C-154.51520522 229.47090921 -148.51067649 229.88240951 -141.4375 227.8125 C-134.41909055 225.2267702 -130.33893674 220.95539739 -126.98046875 214.390625 C-124.39276094 208.08115415 -124.4697651 202.54130343 -126.9296875 196.203125 C-130.41355484 189.03195281 -134.51953202 184.82311904 -142 182 C-152.99450812 178.33516396 -162.52087149 183.20128219 -169.4375 191.77734375 Z M-93.9375 188.8125 C-98.25212436 194.32789246 -100.64036937 199.54912709 -100.33984375 206.60546875 C-99.25233688 214.26801714 -96.22582647 219.8099482 -90.14453125 224.59375 C-84.68042511 228.17677042 -79.57375325 229.69197403 -73 229 C-65.6891437 227.43618047 -60.0800781 224.35330187 -55.71484375 218.18359375 C-52.45934857 212.4077152 -51.29258499 206.16286524 -52.40625 199.609375 C-54.41022376 192.59546684 -58.3615308 187.37501697 -64.625 183.625 C-74.84172959 178.7058339 -86.1019563 180.2991983 -93.9375 188.8125 Z " fill="#124093" transform="translate(295,42)"/>
</svg>
